<mxfile host="app.diagrams.net" modified="2024-07-14T03:52:07.242Z" agent="Mozilla/5.0 (Windows NT 10.0; Win64; x64) AppleWebKit/537.36 (KHTML, like Gecko) Chrome/126.0.0.0 Safari/537.36" etag="_npK7b9BAOSrjXIPHNG3" version="24.6.5" type="google">
  <diagram name="Page-1" id="-_yPXgutgqdCaTY3uVxa">
    <mxGraphModel grid="1" page="1" gridSize="10" guides="1" tooltips="1" connect="1" arrows="1" fold="1" pageScale="1" pageWidth="850" pageHeight="1100" math="0" shadow="0">
      <root>
        <mxCell id="0" />
        <mxCell id="1" parent="0" />
        <mxCell id="NLFYvGZJP4oL6Cd1EnTr-30" value="" style="rounded=0;whiteSpace=wrap;html=1;fontFamily=Times New Roman;" vertex="1" parent="1">
          <mxGeometry x="30" y="70" width="340" height="380" as="geometry" />
        </mxCell>
        <mxCell id="NLFYvGZJP4oL6Cd1EnTr-17" style="edgeStyle=orthogonalEdgeStyle;rounded=0;orthogonalLoop=1;jettySize=auto;html=1;exitX=1;exitY=0.5;exitDx=0;exitDy=0;entryX=0;entryY=0.5;entryDx=0;entryDy=0;fontFamily=Times New Roman;" edge="1" parent="1" source="NLFYvGZJP4oL6Cd1EnTr-1" target="NLFYvGZJP4oL6Cd1EnTr-3">
          <mxGeometry relative="1" as="geometry" />
        </mxCell>
        <mxCell id="NLFYvGZJP4oL6Cd1EnTr-1" value="Data&amp;nbsp;&lt;div&gt;Collection&lt;/div&gt;" style="rounded=1;whiteSpace=wrap;html=1;fontFamily=Times New Roman;" vertex="1" parent="1">
          <mxGeometry x="160" y="80" width="80" height="40" as="geometry" />
        </mxCell>
        <mxCell id="NLFYvGZJP4oL6Cd1EnTr-16" style="edgeStyle=orthogonalEdgeStyle;rounded=0;orthogonalLoop=1;jettySize=auto;html=1;exitX=1;exitY=0.5;exitDx=0;exitDy=0;entryX=0;entryY=0.5;entryDx=0;entryDy=0;fontFamily=Times New Roman;" edge="1" parent="1" source="NLFYvGZJP4oL6Cd1EnTr-2" target="NLFYvGZJP4oL6Cd1EnTr-1">
          <mxGeometry relative="1" as="geometry" />
        </mxCell>
        <mxCell id="NLFYvGZJP4oL6Cd1EnTr-2" value="Start" style="ellipse;whiteSpace=wrap;html=1;fontFamily=Times New Roman;" vertex="1" parent="1">
          <mxGeometry x="40" y="80" width="80" height="40" as="geometry" />
        </mxCell>
        <mxCell id="NLFYvGZJP4oL6Cd1EnTr-18" style="edgeStyle=orthogonalEdgeStyle;rounded=0;orthogonalLoop=1;jettySize=auto;html=1;exitX=0.5;exitY=1;exitDx=0;exitDy=0;entryX=0.5;entryY=0;entryDx=0;entryDy=0;fontFamily=Times New Roman;" edge="1" parent="1" source="NLFYvGZJP4oL6Cd1EnTr-3" target="NLFYvGZJP4oL6Cd1EnTr-4">
          <mxGeometry relative="1" as="geometry" />
        </mxCell>
        <mxCell id="NLFYvGZJP4oL6Cd1EnTr-3" value="Data Transformation" style="rounded=1;whiteSpace=wrap;html=1;fontFamily=Times New Roman;" vertex="1" parent="1">
          <mxGeometry x="280" y="80" width="80" height="40" as="geometry" />
        </mxCell>
        <mxCell id="NLFYvGZJP4oL6Cd1EnTr-19" style="edgeStyle=orthogonalEdgeStyle;rounded=0;orthogonalLoop=1;jettySize=auto;html=1;exitX=0;exitY=0.5;exitDx=0;exitDy=0;entryX=1;entryY=0.5;entryDx=0;entryDy=0;fontFamily=Times New Roman;" edge="1" parent="1" source="NLFYvGZJP4oL6Cd1EnTr-4" target="NLFYvGZJP4oL6Cd1EnTr-5">
          <mxGeometry relative="1" as="geometry" />
        </mxCell>
        <mxCell id="NLFYvGZJP4oL6Cd1EnTr-4" value="Data Preprocessing" style="rounded=1;whiteSpace=wrap;html=1;fontFamily=Times New Roman;" vertex="1" parent="1">
          <mxGeometry x="280" y="160" width="80" height="40" as="geometry" />
        </mxCell>
        <mxCell id="NLFYvGZJP4oL6Cd1EnTr-20" style="edgeStyle=orthogonalEdgeStyle;rounded=0;orthogonalLoop=1;jettySize=auto;html=1;exitX=0;exitY=0.5;exitDx=0;exitDy=0;entryX=1;entryY=0.5;entryDx=0;entryDy=0;fontFamily=Times New Roman;" edge="1" parent="1" source="NLFYvGZJP4oL6Cd1EnTr-5" target="NLFYvGZJP4oL6Cd1EnTr-6">
          <mxGeometry relative="1" as="geometry" />
        </mxCell>
        <mxCell id="NLFYvGZJP4oL6Cd1EnTr-5" value="Machine Learning Models" style="rounded=1;whiteSpace=wrap;html=1;fontFamily=Times New Roman;" vertex="1" parent="1">
          <mxGeometry x="160" y="160" width="80" height="40" as="geometry" />
        </mxCell>
        <mxCell id="NLFYvGZJP4oL6Cd1EnTr-21" style="edgeStyle=orthogonalEdgeStyle;rounded=0;orthogonalLoop=1;jettySize=auto;html=1;exitX=0.5;exitY=1;exitDx=0;exitDy=0;entryX=0.5;entryY=0;entryDx=0;entryDy=0;fontFamily=Times New Roman;" edge="1" parent="1" source="NLFYvGZJP4oL6Cd1EnTr-6" target="NLFYvGZJP4oL6Cd1EnTr-7">
          <mxGeometry relative="1" as="geometry" />
        </mxCell>
        <mxCell id="NLFYvGZJP4oL6Cd1EnTr-6" value="Ensemble Model" style="rounded=1;whiteSpace=wrap;html=1;fontFamily=Times New Roman;" vertex="1" parent="1">
          <mxGeometry x="40" y="160" width="80" height="40" as="geometry" />
        </mxCell>
        <mxCell id="NLFYvGZJP4oL6Cd1EnTr-22" style="edgeStyle=orthogonalEdgeStyle;rounded=0;orthogonalLoop=1;jettySize=auto;html=1;exitX=1;exitY=0.5;exitDx=0;exitDy=0;fontFamily=Times New Roman;" edge="1" parent="1" source="NLFYvGZJP4oL6Cd1EnTr-7" target="NLFYvGZJP4oL6Cd1EnTr-8">
          <mxGeometry relative="1" as="geometry" />
        </mxCell>
        <mxCell id="NLFYvGZJP4oL6Cd1EnTr-7" value="Streamlit Cloud Setup" style="rounded=1;whiteSpace=wrap;html=1;fontFamily=Times New Roman;" vertex="1" parent="1">
          <mxGeometry x="40" y="240" width="80" height="40" as="geometry" />
        </mxCell>
        <mxCell id="NLFYvGZJP4oL6Cd1EnTr-23" style="edgeStyle=orthogonalEdgeStyle;rounded=0;orthogonalLoop=1;jettySize=auto;html=1;exitX=1;exitY=0.5;exitDx=0;exitDy=0;entryX=0;entryY=0.5;entryDx=0;entryDy=0;fontFamily=Times New Roman;" edge="1" parent="1" source="NLFYvGZJP4oL6Cd1EnTr-8" target="NLFYvGZJP4oL6Cd1EnTr-9">
          <mxGeometry relative="1" as="geometry" />
        </mxCell>
        <mxCell id="NLFYvGZJP4oL6Cd1EnTr-8" value="Push app to cloud" style="rounded=1;whiteSpace=wrap;html=1;fontFamily=Times New Roman;" vertex="1" parent="1">
          <mxGeometry x="160" y="240" width="80" height="40" as="geometry" />
        </mxCell>
        <mxCell id="NLFYvGZJP4oL6Cd1EnTr-24" style="edgeStyle=orthogonalEdgeStyle;rounded=0;orthogonalLoop=1;jettySize=auto;html=1;entryX=0.5;entryY=0;entryDx=0;entryDy=0;fontFamily=Times New Roman;" edge="1" parent="1" source="NLFYvGZJP4oL6Cd1EnTr-9" target="NLFYvGZJP4oL6Cd1EnTr-10">
          <mxGeometry relative="1" as="geometry" />
        </mxCell>
        <mxCell id="NLFYvGZJP4oL6Cd1EnTr-9" value="Start Application" style="rounded=1;whiteSpace=wrap;html=1;fontFamily=Times New Roman;" vertex="1" parent="1">
          <mxGeometry x="280" y="240" width="80" height="40" as="geometry" />
        </mxCell>
        <mxCell id="NLFYvGZJP4oL6Cd1EnTr-25" value="" style="edgeStyle=orthogonalEdgeStyle;rounded=0;orthogonalLoop=1;jettySize=auto;html=1;fontFamily=Times New Roman;" edge="1" parent="1" source="NLFYvGZJP4oL6Cd1EnTr-10" target="NLFYvGZJP4oL6Cd1EnTr-11">
          <mxGeometry relative="1" as="geometry" />
        </mxCell>
        <mxCell id="NLFYvGZJP4oL6Cd1EnTr-10" value="User Input&amp;nbsp;&lt;div&gt;Data&lt;/div&gt;" style="rounded=1;whiteSpace=wrap;html=1;fontFamily=Times New Roman;" vertex="1" parent="1">
          <mxGeometry x="280" y="320" width="80" height="40" as="geometry" />
        </mxCell>
        <mxCell id="NLFYvGZJP4oL6Cd1EnTr-26" value="" style="edgeStyle=orthogonalEdgeStyle;rounded=0;orthogonalLoop=1;jettySize=auto;html=1;fontFamily=Times New Roman;" edge="1" parent="1" source="NLFYvGZJP4oL6Cd1EnTr-11" target="NLFYvGZJP4oL6Cd1EnTr-12">
          <mxGeometry relative="1" as="geometry" />
        </mxCell>
        <mxCell id="NLFYvGZJP4oL6Cd1EnTr-11" value="Data Preprocessing" style="rounded=1;whiteSpace=wrap;html=1;fontFamily=Times New Roman;" vertex="1" parent="1">
          <mxGeometry x="160" y="320" width="80" height="40" as="geometry" />
        </mxCell>
        <mxCell id="NLFYvGZJP4oL6Cd1EnTr-27" value="" style="edgeStyle=orthogonalEdgeStyle;rounded=0;orthogonalLoop=1;jettySize=auto;html=1;fontFamily=Times New Roman;" edge="1" parent="1" source="NLFYvGZJP4oL6Cd1EnTr-12" target="NLFYvGZJP4oL6Cd1EnTr-13">
          <mxGeometry relative="1" as="geometry" />
        </mxCell>
        <mxCell id="NLFYvGZJP4oL6Cd1EnTr-12" value="Model Call for Input data" style="rounded=1;whiteSpace=wrap;html=1;fontFamily=Times New Roman;" vertex="1" parent="1">
          <mxGeometry x="40" y="320" width="80" height="40" as="geometry" />
        </mxCell>
        <mxCell id="NLFYvGZJP4oL6Cd1EnTr-28" value="" style="edgeStyle=orthogonalEdgeStyle;rounded=0;orthogonalLoop=1;jettySize=auto;html=1;fontFamily=Times New Roman;" edge="1" parent="1" source="NLFYvGZJP4oL6Cd1EnTr-13" target="NLFYvGZJP4oL6Cd1EnTr-15">
          <mxGeometry relative="1" as="geometry" />
        </mxCell>
        <mxCell id="NLFYvGZJP4oL6Cd1EnTr-13" value="Display Results&lt;span style=&quot;color: rgba(0, 0, 0, 0); font-size: 0px; text-align: start; text-wrap: nowrap;&quot;&gt;%3CmxGraphModel%3E%3Croot%3E%3CmxCell%20id%3D%220%22%2F%3E%3CmxCell%20id%3D%221%22%20parent%3D%220%22%2F%3E%3CmxCell%20id%3D%222%22%20value%3D%22Data%20Preprocessing%22%20style%3D%22rounded%3D1%3BwhiteSpace%3Dwrap%3Bhtml%3D1%3B%22%20vertex%3D%221%22%20parent%3D%221%22%3E%3CmxGeometry%20x%3D%22160%22%20y%3D%22320%22%20width%3D%2280%22%20height%3D%2240%22%20as%3D%22geometry%22%2F%3E%3C%2FmxCell%3E%3C%2Froot%3E%3C%2FmxGraphModel%3E&lt;/span&gt;" style="rounded=1;whiteSpace=wrap;html=1;fontFamily=Times New Roman;" vertex="1" parent="1">
          <mxGeometry x="40" y="400" width="80" height="40" as="geometry" />
        </mxCell>
        <mxCell id="NLFYvGZJP4oL6Cd1EnTr-15" value="End" style="ellipse;whiteSpace=wrap;html=1;fontFamily=Times New Roman;" vertex="1" parent="1">
          <mxGeometry x="160" y="400" width="80" height="40" as="geometry" />
        </mxCell>
      </root>
    </mxGraphModel>
  </diagram>
</mxfile>
